<?xml version="1.0" encoding="utf-8" standalone="no"?>
<!DOCTYPE svg PUBLIC "-//W3C//DTD SVG 1.1//EN"
  "http://www.w3.org/Graphics/SVG/1.1/DTD/svg11.dtd">
<svg height="217.44pt" version="1.1" viewBox="0 0 145.990323 217.44" width="145.990323pt" xmlns="http://www.w3.org/2000/svg" xmlns:xlink="http://www.w3.org/1999/xlink">
 <metadata>
  <rdf:RDF xmlns:cc="http://creativecommons.org/ns#" xmlns:dc="http://purl.org/dc/elements/1.1/" xmlns:rdf="http://www.w3.org/1999/02/22-rdf-syntax-ns#">
   <cc:Work>
    <dc:type rdf:resource="http://purl.org/dc/dcmitype/StillImage"/>
    <dc:date>2022-08-09T09:34:55.182069</dc:date>
    <dc:format>image/svg+xml</dc:format>
    <dc:creator>
     <cc:Agent>
      <dc:title>Matplotlib v3.4.3, https://matplotlib.org/</dc:title>
     </cc:Agent>
    </dc:creator>
   </cc:Work>
  </rdf:RDF>
 </metadata>
 <defs>
  <style type="text/css">*{stroke-linecap:butt;stroke-linejoin:round;}</style>
 </defs>
 <g id="figure_1">
  <g id="patch_1">
   <path d="M 0 217.44 
L 145.990323 217.44 
L 145.990323 0 
L 0 0 
z
" style="fill:none;"/>
  </g>
  <g id="axes_1">
   <g id="PathCollection_1">
    <path clip-path="url(#p87c72f8ee1)" d="M 10.436565 14.837059 
C 10.594642 14.837059 10.746267 14.774254 10.858044 14.662476 
C 10.969822 14.550699 11.032626 14.399074 11.032626 14.240997 
C 11.032626 14.08292 10.969822 13.931295 10.858044 13.819518 
C 10.746267 13.70774 10.594642 13.644935 10.436565 13.644935 
C 10.278488 13.644935 10.126863 13.70774 10.015086 13.819518 
C 9.903308 13.931295 9.840503 14.08292 9.840503 14.240997 
C 9.840503 14.399074 9.903308 14.550699 10.015086 14.662476 
C 10.126863 14.774254 10.278488 14.837059 10.436565 14.837059 
z
"/>
    <path clip-path="url(#p87c72f8ee1)" d="M 33.818851 10.698243 
C 33.97913 10.698243 34.132866 10.634563 34.2462 10.521229 
C 34.359535 10.407895 34.423214 10.254159 34.423214 10.09388 
C 34.423214 9.933601 34.359535 9.779865 34.2462 9.666531 
C 34.132866 9.553197 33.97913 9.489517 33.818851 9.489517 
C 33.658572 9.489517 33.504837 9.553197 33.391502 9.666531 
C 33.278168 9.779865 33.214489 9.933601 33.214489 10.09388 
C 33.214489 10.254159 33.278168 10.407895 33.391502 10.521229 
C 33.504837 10.634563 33.658572 10.698243 33.818851 10.698243 
z
"/>
    <path clip-path="url(#p87c72f8ee1)" d="M 112.355806 32.434145 
C 112.543758 32.434145 112.724038 32.359471 112.856941 32.226569 
C 112.989843 32.093666 113.064517 31.913386 113.064517 31.725434 
C 113.064517 31.537481 112.989843 31.357202 112.856941 31.224299 
C 112.724038 31.091397 112.543758 31.016722 112.355806 31.016722 
C 112.167853 31.016722 111.987574 31.091397 111.854671 31.224299 
C 111.721769 31.357202 111.647094 31.537481 111.647094 31.725434 
C 111.647094 31.913386 111.721769 32.093666 111.854671 32.226569 
C 111.987574 32.359471 112.167853 32.434145 112.355806 32.434145 
z
"/>
    <path clip-path="url(#p87c72f8ee1)" d="M 136.867621 63.512712 
C 137.076335 63.512712 137.276528 63.42979 137.42411 63.282207 
C 137.571693 63.134624 137.654616 62.934431 137.654616 62.725718 
C 137.654616 62.517005 137.571693 62.316812 137.42411 62.169229 
C 137.276528 62.021647 137.076335 61.938724 136.867621 61.938724 
C 136.658908 61.938724 136.458715 62.021647 136.311132 62.169229 
C 136.16355 62.316812 136.080627 62.517005 136.080627 62.725718 
C 136.080627 62.934431 136.16355 63.134624 136.311132 63.282207 
C 136.458715 63.42979 136.658908 63.512712 136.867621 63.512712 
z
"/>
    <path clip-path="url(#p87c72f8ee1)" d="M 135.966752 37.447188 
C 136.142666 37.447188 136.311399 37.377296 136.435789 37.252906 
C 136.560179 37.128516 136.63007 36.959783 136.63007 36.783869 
C 136.63007 36.607955 136.560179 36.439222 136.435789 36.314832 
C 136.311399 36.190442 136.142666 36.120551 135.966752 36.120551 
C 135.790838 36.120551 135.622105 36.190442 135.497715 36.314832 
C 135.373325 36.439222 135.303433 36.607955 135.303433 36.783869 
C 135.303433 36.959783 135.373325 37.128516 135.497715 37.252906 
C 135.622105 37.377296 135.790838 37.447188 135.966752 37.447188 
z
"/>
    <path clip-path="url(#p87c72f8ee1)" d="M 98.729815 10.83066 
C 98.90523 10.83066 99.073485 10.760966 99.197522 10.636929 
C 99.321559 10.512892 99.391253 10.344637 99.391253 10.169222 
C 99.391253 9.993806 99.321559 9.825552 99.197522 9.701515 
C 99.073485 9.577477 98.90523 9.507784 98.729815 9.507784 
C 98.5544 9.507784 98.386145 9.577477 98.262108 9.701515 
C 98.13807 9.825552 98.068377 9.993806 98.068377 10.169222 
C 98.068377 10.344637 98.13807 10.512892 98.262108 10.636929 
C 98.386145 10.760966 98.5544 10.83066 98.729815 10.83066 
z
"/>
    <path clip-path="url(#p87c72f8ee1)" d="M 64.193012 10.512245 
C 64.359721 10.512245 64.519625 10.446011 64.637506 10.32813 
C 64.755387 10.210249 64.821621 10.050345 64.821621 9.883636 
C 64.821621 9.716927 64.755387 9.557024 64.637506 9.439143 
C 64.519625 9.321262 64.359721 9.255028 64.193012 9.255028 
C 64.026303 9.255028 63.8664 9.321262 63.748519 9.439143 
C 63.630637 9.557024 63.564403 9.716927 63.564403 9.883636 
C 63.564403 10.050345 63.630637 10.210249 63.748519 10.32813 
C 63.8664 10.446011 64.026303 10.512245 64.193012 10.512245 
z
"/>
    <path clip-path="url(#p87c72f8ee1)" d="M 131.948022 12.065171 
C 132.133629 12.065171 132.31166 11.991429 132.442904 11.860184 
C 132.574148 11.72894 132.647891 11.55091 132.647891 11.365303 
C 132.647891 11.179695 132.574148 11.001665 132.442904 10.870421 
C 132.31166 10.739177 132.133629 10.665434 131.948022 10.665434 
C 131.762415 10.665434 131.584385 10.739177 131.45314 10.870421 
C 131.321896 11.001665 131.248154 11.179695 131.248154 11.365303 
C 131.248154 11.55091 131.321896 11.72894 131.45314 11.860184 
C 131.584385 11.991429 131.762415 12.065171 131.948022 12.065171 
z
"/>
    <path clip-path="url(#p87c72f8ee1)" d="M 12.572394 41.928869 
C 12.712865 41.928869 12.847601 41.873059 12.946929 41.773731 
C 13.046256 41.674404 13.102066 41.539667 13.102066 41.399197 
C 13.102066 41.258726 13.046256 41.12399 12.946929 41.024662 
C 12.847601 40.925334 12.712865 40.869525 12.572394 40.869525 
C 12.431923 40.869525 12.297187 40.925334 12.197859 41.024662 
C 12.098532 41.12399 12.042722 41.258726 12.042722 41.399197 
C 12.042722 41.539667 12.098532 41.674404 12.197859 41.773731 
C 12.297187 41.873059 12.431923 41.928869 12.572394 41.928869 
z
"/>
    <path clip-path="url(#p87c72f8ee1)" d="M 114.623784 55.427365 
C 114.793617 55.427365 114.956516 55.35989 115.076606 55.2398 
C 115.196696 55.11971 115.264171 54.95681 115.264171 54.786978 
C 115.264171 54.617145 115.196696 54.454245 115.076606 54.334155 
C 114.956516 54.214065 114.793617 54.14659 114.623784 54.14659 
C 114.453951 54.14659 114.291051 54.214065 114.170961 54.334155 
C 114.050871 54.454245 113.983396 54.617145 113.983396 54.786978 
C 113.983396 54.95681 114.050871 55.11971 114.170961 55.2398 
C 114.291051 55.35989 114.453951 55.427365 114.623784 55.427365 
z
"/>
    <path clip-path="url(#p87c72f8ee1)" d="M 120.905656 75.825762 
C 121.123408 75.825762 121.332271 75.739248 121.486245 75.585274 
C 121.640219 75.4313 121.726733 75.222437 121.726733 75.004685 
C 121.726733 74.786933 121.640219 74.57807 121.486245 74.424096 
C 121.332271 74.270122 121.123408 74.183609 120.905656 74.183609 
C 120.687904 74.183609 120.479041 74.270122 120.325067 74.424096 
C 120.171093 74.57807 120.084579 74.786933 120.084579 75.004685 
C 120.084579 75.222437 120.171093 75.4313 120.325067 75.585274 
C 120.479041 75.739248 120.687904 75.825762 120.905656 75.825762 
z
"/>
    <path clip-path="url(#p87c72f8ee1)" d="M 112.184388 96.298326 
C 112.366661 96.298326 112.541494 96.225908 112.67038 96.097021 
C 112.799267 95.968134 112.871685 95.793302 112.871685 95.611029 
C 112.871685 95.428755 112.799267 95.253923 112.67038 95.125036 
C 112.541494 94.99615 112.366661 94.923732 112.184388 94.923732 
C 112.002115 94.923732 111.827282 94.99615 111.698396 95.125036 
C 111.569509 95.253923 111.497091 95.428755 111.497091 95.611029 
C 111.497091 95.793302 111.569509 95.968134 111.698396 96.097021 
C 111.827282 96.225908 112.002115 96.298326 112.184388 96.298326 
z
"/>
    <path clip-path="url(#p87c72f8ee1)" d="M 25.430769 60.412243 
C 25.576143 60.412243 25.715583 60.354485 25.818378 60.25169 
C 25.921173 60.148894 25.978931 60.009454 25.978931 59.86408 
C 25.978931 59.718706 25.921173 59.579266 25.818378 59.47647 
C 25.715583 59.373675 25.576143 59.315917 25.430769 59.315917 
C 25.285394 59.315917 25.145954 59.373675 25.043159 59.47647 
C 24.940364 59.579266 24.882606 59.718706 24.882606 59.86408 
C 24.882606 60.009454 24.940364 60.148894 25.043159 60.25169 
C 25.145954 60.354485 25.285394 60.412243 25.430769 60.412243 
z
"/>
    <path clip-path="url(#p87c72f8ee1)" d="M 67.518205 62.49546 
C 67.721388 62.49546 67.916277 62.414735 68.05995 62.271063 
C 68.203622 62.12739 68.284347 61.932502 68.284347 61.729318 
C 68.284347 61.526135 68.203622 61.331246 68.05995 61.187574 
C 67.916277 61.043902 67.721388 60.963176 67.518205 60.963176 
C 67.315022 60.963176 67.120133 61.043902 66.976461 61.187574 
C 66.832789 61.331246 66.752063 61.526135 66.752063 61.729318 
C 66.752063 61.932502 66.832789 62.12739 66.976461 62.271063 
C 67.120133 62.414735 67.315022 62.49546 67.518205 62.49546 
z
"/>
    <path clip-path="url(#p87c72f8ee1)" d="M 87.691382 40.082116 
C 87.812422 40.082116 87.928522 40.034026 88.01411 39.948437 
C 88.099699 39.862849 88.147788 39.74675 88.147788 39.625709 
C 88.147788 39.504669 88.099699 39.38857 88.01411 39.302981 
C 87.928522 39.217393 87.812422 39.169303 87.691382 39.169303 
C 87.570342 39.169303 87.454243 39.217393 87.368654 39.302981 
C 87.283066 39.38857 87.234976 39.504669 87.234976 39.625709 
C 87.234976 39.74675 87.283066 39.862849 87.368654 39.948437 
C 87.454243 40.034026 87.570342 40.082116 87.691382 40.082116 
z
"/>
    <path clip-path="url(#p87c72f8ee1)" d="M 47.529402 62.842028 
C 47.652595 62.842028 47.770758 62.793083 47.857868 62.705973 
C 47.944979 62.618863 47.993924 62.500699 47.993924 62.377507 
C 47.993924 62.254314 47.944979 62.13615 47.857868 62.04904 
C 47.770758 61.96193 47.652595 61.912985 47.529402 61.912985 
C 47.406209 61.912985 47.288046 61.96193 47.200935 62.04904 
C 47.113825 62.13615 47.06488 62.254314 47.06488 62.377507 
C 47.06488 62.500699 47.113825 62.618863 47.200935 62.705973 
C 47.288046 62.793083 47.406209 62.842028 47.529402 62.842028 
z
"/>
    <path clip-path="url(#p87c72f8ee1)" d="M 41.067345 33.079685 
C 41.215702 33.079685 41.358002 33.020742 41.462907 32.915838 
C 41.567811 32.810934 41.626754 32.668633 41.626754 32.520276 
C 41.626754 32.371919 41.567811 32.229618 41.462907 32.124714 
C 41.358002 32.01981 41.215702 31.960867 41.067345 31.960867 
C 40.918988 31.960867 40.776687 32.01981 40.671783 32.124714 
C 40.566879 32.229618 40.507936 32.371919 40.507936 32.520276 
C 40.507936 32.668633 40.566879 32.810934 40.671783 32.915838 
C 40.776687 33.020742 40.918988 33.079685 41.067345 33.079685 
z
"/>
    <path clip-path="url(#p87c72f8ee1)" d="M 94.344166 67.112212 
C 94.558675 67.112212 94.764428 67.026987 94.916109 66.875306 
C 95.06779 66.723625 95.153015 66.517872 95.153015 66.303363 
C 95.153015 66.088854 95.06779 65.883101 94.916109 65.73142 
C 94.764428 65.579739 94.558675 65.494514 94.344166 65.494514 
C 94.129657 65.494514 93.923904 65.579739 93.772223 65.73142 
C 93.620542 65.883101 93.535317 66.088854 93.535317 66.303363 
C 93.535317 66.517872 93.620542 66.723625 93.772223 66.875306 
C 93.923904 67.026987 94.129657 67.112212 94.344166 67.112212 
z
"/>
    <path clip-path="url(#p87c72f8ee1)" d="M 93.601669 94.754557 
C 93.790087 94.754557 93.970814 94.679698 94.104045 94.546466 
C 94.237277 94.413235 94.312136 94.232508 94.312136 94.04409 
C 94.312136 93.855672 94.237277 93.674946 94.104045 93.541714 
C 93.970814 93.408483 93.790087 93.333623 93.601669 93.333623 
C 93.413251 93.333623 93.232525 93.408483 93.099293 93.541714 
C 92.966062 93.674946 92.891202 93.855672 92.891202 94.04409 
C 92.891202 94.232508 92.966062 94.413235 93.099293 94.546466 
C 93.232525 94.679698 93.413251 94.754557 93.601669 94.754557 
z
"/>
    <path clip-path="url(#p87c72f8ee1)" d="M 90.956138 113.734888 
C 91.167355 113.734888 91.369949 113.650971 91.519302 113.501618 
C 91.668655 113.352265 91.752572 113.149671 91.752572 112.938454 
C 91.752572 112.727237 91.668655 112.524643 91.519302 112.37529 
C 91.369949 112.225937 91.167355 112.14202 90.956138 112.14202 
C 90.744921 112.14202 90.542327 112.225937 90.392974 112.37529 
C 90.243621 112.524643 90.159704 112.727237 90.159704 112.938454 
C 90.159704 113.149671 90.243621 113.352265 90.392974 113.501618 
C 90.542327 113.650971 90.744921 113.734888 90.956138 113.734888 
z
"/>
    <path clip-path="url(#p87c72f8ee1)" d="M 26.467346 187.43034 
C 26.649138 187.43034 26.823509 187.358114 26.952055 187.229567 
C 27.080601 187.101021 27.152828 186.92665 27.152828 186.744858 
C 27.152828 186.563066 27.080601 186.388695 26.952055 186.260149 
C 26.823509 186.131602 26.649138 186.059376 26.467346 186.059376 
C 26.285554 186.059376 26.111183 186.131602 25.982637 186.260149 
C 25.85409 186.388695 25.781863 186.563066 25.781863 186.744858 
C 25.781863 186.92665 25.85409 187.101021 25.982637 187.229567 
C 26.111183 187.358114 26.285554 187.43034 26.467346 187.43034 
z
"/>
    <path clip-path="url(#p87c72f8ee1)" d="M 10.871005 176.331285 
C 11.028527 176.331285 11.179619 176.268701 11.291004 176.157316 
C 11.402389 176.045931 11.464973 175.894839 11.464973 175.737317 
C 11.464973 175.579795 11.402389 175.428703 11.291004 175.317318 
C 11.179619 175.205933 11.028527 175.143349 10.871005 175.143349 
C 10.713483 175.143349 10.562391 175.205933 10.451006 175.317318 
C 10.339621 175.428703 10.277037 175.579795 10.277037 175.737317 
C 10.277037 175.894839 10.339621 176.045931 10.451006 176.157316 
C 10.562391 176.268701 10.713483 176.331285 10.871005 176.331285 
z
"/>
    <path clip-path="url(#p87c72f8ee1)" d="M 36.551928 205.77962 
C 36.7598 205.77962 36.959186 205.697032 37.106174 205.550044 
C 37.253162 205.403056 37.33575 205.20367 37.33575 204.995798 
C 37.33575 204.787926 37.253162 204.58854 37.106174 204.441552 
C 36.959186 204.294564 36.7598 204.211976 36.551928 204.211976 
C 36.344056 204.211976 36.14467 204.294564 35.997682 204.441552 
C 35.850694 204.58854 35.768106 204.787926 35.768106 204.995798 
C 35.768106 205.20367 35.850694 205.403056 35.997682 205.550044 
C 36.14467 205.697032 36.344056 205.77962 36.551928 205.77962 
z
"/>
    <path clip-path="url(#p87c72f8ee1)" d="M 6.635924 208.15659 
C 6.795106 208.15659 6.947789 208.093346 7.060348 207.980788 
C 7.172907 207.868229 7.23615 207.715546 7.23615 207.556364 
C 7.23615 207.397182 7.172907 207.244498 7.060348 207.131939 
C 6.947789 207.019381 6.795106 206.956137 6.635924 206.956137 
C 6.476742 206.956137 6.324058 207.019381 6.2115 207.131939 
C 6.098941 207.244498 6.035697 207.397182 6.035697 207.556364 
C 6.035697 207.715546 6.098941 207.868229 6.2115 207.980788 
C 6.324058 208.093346 6.476742 208.15659 6.635924 208.15659 
z
"/>
    <path clip-path="url(#p87c72f8ee1)" d="M 21.655668 206.359906 
C 21.802243 206.359906 21.942834 206.301671 22.046478 206.198027 
C 22.150122 206.094383 22.208357 205.953792 22.208357 205.807217 
C 22.208357 205.660643 22.150122 205.520051 22.046478 205.416407 
C 21.942834 205.312763 21.802243 205.254529 21.655668 205.254529 
C 21.509093 205.254529 21.368502 205.312763 21.264858 205.416407 
C 21.161214 205.520051 21.102979 205.660643 21.102979 205.807217 
C 21.102979 205.953792 21.161214 206.094383 21.264858 206.198027 
C 21.368502 206.301671 21.509093 206.359906 21.655668 206.359906 
z
"/>
    <path clip-path="url(#p87c72f8ee1)" d="M 8.060769 191.980497 
C 8.255138 191.980497 8.441572 191.903273 8.579011 191.765834 
C 8.716451 191.628395 8.793674 191.441961 8.793674 191.247592 
C 8.793674 191.053223 8.716451 190.86679 8.579011 190.72935 
C 8.441572 190.591911 8.255138 190.514687 8.060769 190.514687 
C 7.866401 190.514687 7.679967 190.591911 7.542527 190.72935 
C 7.405088 190.86679 7.327865 191.053223 7.327865 191.247592 
C 7.327865 191.441961 7.405088 191.628395 7.542527 191.765834 
C 7.679967 191.903273 7.866401 191.980497 8.060769 191.980497 
z
"/>
    <path clip-path="url(#p87c72f8ee1)" d="M 135.495828 90.5983 
C 135.65556 90.5983 135.80877 90.534838 135.921717 90.421891 
C 136.034664 90.308944 136.098126 90.155733 136.098126 89.996002 
C 136.098126 89.83627 136.034664 89.68306 135.921717 89.570113 
C 135.80877 89.457166 135.65556 89.393704 135.495828 89.393704 
C 135.336097 89.393704 135.182886 89.457166 135.069939 89.570113 
C 134.956992 89.68306 134.89353 89.83627 134.89353 89.996002 
C 134.89353 90.155733 134.956992 90.308944 135.069939 90.421891 
C 135.182886 90.534838 135.336097 90.5983 135.495828 90.5983 
z
"/>
    <path clip-path="url(#p87c72f8ee1)" d="M 105.175184 113.967024 
C 105.394939 113.967024 105.605722 113.879715 105.761112 113.724325 
C 105.916502 113.568935 106.003811 113.358151 106.003811 113.138397 
C 106.003811 112.918642 105.916502 112.707859 105.761112 112.552469 
C 105.605722 112.397079 105.394939 112.309769 105.175184 112.309769 
C 104.95543 112.309769 104.744646 112.397079 104.589256 112.552469 
C 104.433866 112.707859 104.346557 112.918642 104.346557 113.138397 
C 104.346557 113.358151 104.433866 113.568935 104.589256 113.724325 
C 104.744646 113.879715 104.95543 113.967024 105.175184 113.967024 
z
"/>
    <path clip-path="url(#p87c72f8ee1)" d="M 122.529358 107.574124 
C 122.739327 107.574124 122.940725 107.490702 123.089195 107.342232 
C 123.237665 107.193761 123.321087 106.992364 123.321087 106.782395 
C 123.321087 106.572427 123.237665 106.371029 123.089195 106.222559 
C 122.940725 106.074089 122.739327 105.990667 122.529358 105.990667 
C 122.31939 105.990667 122.117992 106.074089 121.969522 106.222559 
C 121.821052 106.371029 121.73763 106.572427 121.73763 106.782395 
C 121.73763 106.992364 121.821052 107.193761 121.969522 107.342232 
C 122.117992 107.490702 122.31939 107.574124 122.529358 107.574124 
z
"/>
    <path clip-path="url(#p87c72f8ee1)" d="M 135.717049 115.330773 
C 135.936405 115.330773 136.146806 115.243622 136.301913 115.088514 
C 136.457021 114.933407 136.544172 114.723006 136.544172 114.50365 
C 136.544172 114.284295 136.457021 114.073894 136.301913 113.918786 
C 136.146806 113.763679 135.936405 113.676528 135.717049 113.676528 
C 135.497694 113.676528 135.287293 113.763679 135.132185 113.918786 
C 134.977078 114.073894 134.889927 114.284295 134.889927 114.50365 
C 134.889927 114.723006 134.977078 114.933407 135.132185 115.088514 
C 135.287293 115.243622 135.497694 115.330773 135.717049 115.330773 
z
"/>
    <path clip-path="url(#p87c72f8ee1)" d="M 124.758301 143.030091 
C 124.979644 143.030091 125.191952 142.942151 125.348465 142.785637 
C 125.504979 142.629124 125.592919 142.416816 125.592919 142.195473 
C 125.592919 141.974129 125.504979 141.761822 125.348465 141.605308 
C 125.191952 141.448795 124.979644 141.360854 124.758301 141.360854 
C 124.536958 141.360854 124.32465 141.448795 124.168137 141.605308 
C 124.011623 141.761822 123.923682 141.974129 123.923682 142.195473 
C 123.923682 142.416816 124.011623 142.629124 124.168137 142.785637 
C 124.32465 142.942151 124.536958 143.030091 124.758301 143.030091 
z
"/>
    <path clip-path="url(#p87c72f8ee1)" d="M 116.726211 128.084502 
C 116.932815 128.084502 117.130985 128.002417 117.277076 127.856326 
C 117.423167 127.710235 117.505251 127.512065 117.505251 127.305462 
C 117.505251 127.098858 117.423167 126.900688 117.277076 126.754597 
C 117.130985 126.608506 116.932815 126.526421 116.726211 126.526421 
C 116.519607 126.526421 116.321437 126.608506 116.175346 126.754597 
C 116.029255 126.900688 115.947171 127.098858 115.947171 127.305462 
C 115.947171 127.512065 116.029255 127.710235 116.175346 127.856326 
C 116.321437 128.002417 116.519607 128.084502 116.726211 128.084502 
z
"/>
    <path clip-path="url(#p87c72f8ee1)" d="M 51.6889 206.738075 
C 51.895927 206.738075 52.094504 206.655822 52.240894 206.509431 
C 52.387285 206.363041 52.469537 206.164465 52.469537 205.957437 
C 52.469537 205.75041 52.387285 205.551834 52.240894 205.405443 
C 52.094504 205.259053 51.895927 205.1768 51.6889 205.1768 
C 51.481872 205.1768 51.283296 205.259053 51.136906 205.405443 
C 50.990515 205.551834 50.908262 205.75041 50.908262 205.957437 
C 50.908262 206.164465 50.990515 206.363041 51.136906 206.509431 
C 51.283296 206.655822 51.481872 206.738075 51.6889 206.738075 
z
"/>
    <path clip-path="url(#p87c72f8ee1)" d="M 76.941796 117.467833 
C 77.090742 117.467833 77.233608 117.408656 77.338929 117.303335 
C 77.44425 117.198014 77.503427 117.055149 77.503427 116.906202 
C 77.503427 116.757256 77.44425 116.61439 77.338929 116.509069 
C 77.233608 116.403748 77.090742 116.344571 76.941796 116.344571 
C 76.792849 116.344571 76.649983 116.403748 76.544662 116.509069 
C 76.439341 116.61439 76.380164 116.757256 76.380164 116.906202 
C 76.380164 117.055149 76.439341 117.198014 76.544662 117.303335 
C 76.649983 117.408656 76.792849 117.467833 76.941796 117.467833 
z
"/>
    <path clip-path="url(#p87c72f8ee1)" d="M 8.909797 104.270779 
C 9.035802 104.270779 9.156663 104.220716 9.245763 104.131617 
C 9.334862 104.042518 9.384924 103.921657 9.384924 103.795652 
C 9.384924 103.669647 9.334862 103.548786 9.245763 103.459687 
C 9.156663 103.370588 9.035802 103.320525 8.909797 103.320525 
C 8.783792 103.320525 8.662931 103.370588 8.573832 103.459687 
C 8.484733 103.548786 8.434671 103.669647 8.434671 103.795652 
C 8.434671 103.921657 8.484733 104.042518 8.573832 104.131617 
C 8.662931 104.220716 8.783792 104.270779 8.909797 104.270779 
z
"/>
    <path clip-path="url(#p87c72f8ee1)" d="M 9.790573 75.434019 
C 9.920008 75.434019 10.044158 75.382594 10.135683 75.29107 
C 10.227207 75.199546 10.278632 75.075395 10.278632 74.94596 
C 10.278632 74.816525 10.227207 74.692374 10.135683 74.60085 
C 10.044158 74.509326 9.920008 74.457901 9.790573 74.457901 
C 9.661138 74.457901 9.536987 74.509326 9.445463 74.60085 
C 9.353939 74.692374 9.302514 74.816525 9.302514 74.94596 
C 9.302514 75.075395 9.353939 75.199546 9.445463 75.29107 
C 9.536987 75.382594 9.661138 75.434019 9.790573 75.434019 
z
"/>
    <path clip-path="url(#p87c72f8ee1)" d="M 10.409985 162.631129 
C 10.636802 162.631129 10.854359 162.541013 11.014743 162.38063 
C 11.175127 162.220246 11.265242 162.002688 11.265242 161.775871 
C 11.265242 161.549054 11.175127 161.331497 11.014743 161.171113 
C 10.854359 161.010729 10.636802 160.920614 10.409985 160.920614 
C 10.183168 160.920614 9.96561 161.010729 9.805227 161.171113 
C 9.644843 161.331497 9.554727 161.549054 9.554727 161.775871 
C 9.554727 162.002688 9.644843 162.220246 9.805227 162.38063 
C 9.96561 162.541013 10.183168 162.631129 10.409985 162.631129 
z
"/>
    <path clip-path="url(#p87c72f8ee1)" d="M 22.874623 137.61651 
C 23.0535 137.61651 23.225075 137.545441 23.35156 137.418956 
C 23.478046 137.29247 23.549114 137.120895 23.549114 136.942018 
C 23.549114 136.763141 23.478046 136.591566 23.35156 136.465081 
C 23.225075 136.338595 23.0535 136.267527 22.874623 136.267527 
C 22.695746 136.267527 22.524171 136.338595 22.397686 136.465081 
C 22.2712 136.591566 22.200132 136.763141 22.200132 136.942018 
C 22.200132 137.120895 22.2712 137.29247 22.397686 137.418956 
C 22.524171 137.545441 22.695746 137.61651 22.874623 137.61651 
z
"/>
    <path clip-path="url(#p87c72f8ee1)" d="M 8.546784 129.984403 
C 8.705415 129.984403 8.85757 129.921379 8.969738 129.80921 
C 9.081907 129.697041 9.144932 129.544886 9.144932 129.386256 
C 9.144932 129.227625 9.081907 129.07547 8.969738 128.963302 
C 8.85757 128.851133 8.705415 128.788108 8.546784 128.788108 
C 8.388153 128.788108 8.235999 128.851133 8.12383 128.963302 
C 8.011661 129.07547 7.948636 129.227625 7.948636 129.386256 
C 7.948636 129.544886 8.011661 129.697041 8.12383 129.80921 
C 8.235999 129.921379 8.388153 129.984403 8.546784 129.984403 
z
"/>
    <path clip-path="url(#p87c72f8ee1)" d="M 8.826121 147.395778 
C 8.999021 147.395778 9.164863 147.327084 9.287122 147.204825 
C 9.409381 147.082566 9.478075 146.916724 9.478075 146.743824 
C 9.478075 146.570924 9.409381 146.405082 9.287122 146.282823 
C 9.164863 146.160564 8.999021 146.09187 8.826121 146.09187 
C 8.653221 146.09187 8.487379 146.160564 8.36512 146.282823 
C 8.242861 146.405082 8.174167 146.570924 8.174167 146.743824 
C 8.174167 146.916724 8.242861 147.082566 8.36512 147.204825 
C 8.487379 147.327084 8.653221 147.395778 8.826121 147.395778 
z
"/>
    <path clip-path="url(#p87c72f8ee1)" d="M 30.140135 154.371112 
C 30.329018 154.371112 30.510189 154.296068 30.643749 154.162508 
C 30.777309 154.028948 30.852353 153.847776 30.852353 153.658894 
C 30.852353 153.470011 30.777309 153.28884 30.643749 153.15528 
C 30.510189 153.02172 30.329018 152.946676 30.140135 152.946676 
C 29.951253 152.946676 29.770081 153.02172 29.636521 153.15528 
C 29.502961 153.28884 29.427917 153.470011 29.427917 153.658894 
C 29.427917 153.847776 29.502961 154.028948 29.636521 154.162508 
C 29.770081 154.296068 29.951253 154.371112 30.140135 154.371112 
z
"/>
    <path clip-path="url(#p87c72f8ee1)" d="M 108.948083 147.523621 
C 109.139728 147.523621 109.32355 147.447479 109.459063 147.311966 
C 109.594577 147.176452 109.670718 146.99263 109.670718 146.800985 
C 109.670718 146.60934 109.594577 146.425519 109.459063 146.290005 
C 109.32355 146.154491 109.139728 146.07835 108.948083 146.07835 
C 108.756438 146.07835 108.572616 146.154491 108.437103 146.290005 
C 108.301589 146.425519 108.225448 146.60934 108.225448 146.800985 
C 108.225448 146.99263 108.301589 147.176452 108.437103 147.311966 
C 108.572616 147.447479 108.756438 147.523621 108.948083 147.523621 
z
"/>
    <path clip-path="url(#p87c72f8ee1)" d="M 137.644297 133.686876 
C 137.856342 133.686876 138.05973 133.60263 138.209668 133.452691 
C 138.359607 133.302753 138.443853 133.099365 138.443853 132.88732 
C 138.443853 132.675275 138.359607 132.471887 138.209668 132.321949 
C 138.05973 132.17201 137.856342 132.087764 137.644297 132.087764 
C 137.432252 132.087764 137.228864 132.17201 137.078925 132.321949 
C 136.928987 132.471887 136.844741 132.675275 136.844741 132.88732 
C 136.844741 133.099365 136.928987 133.302753 137.078925 133.452691 
C 137.228864 133.60263 137.432252 133.686876 137.644297 133.686876 
z
"/>
    <path clip-path="url(#p87c72f8ee1)" d="M 53.57575 96.492271 
C 53.800627 96.492271 54.016324 96.402926 54.175337 96.243914 
C 54.334349 96.084901 54.423694 95.869204 54.423694 95.644327 
C 54.423694 95.419449 54.334349 95.203752 54.175337 95.04474 
C 54.016324 94.885727 53.800627 94.796383 53.57575 94.796383 
C 53.350872 94.796383 53.135175 94.885727 52.976163 95.04474 
C 52.81715 95.203752 52.727806 95.419449 52.727806 95.644327 
C 52.727806 95.869204 52.81715 96.084901 52.976163 96.243914 
C 53.135175 96.402926 53.350872 96.492271 53.57575 96.492271 
z
"/>
    <path clip-path="url(#p87c72f8ee1)" d="M 75.538227 99.048783 
C 75.757981 99.048783 75.968765 98.961473 76.124155 98.806083 
C 76.279545 98.650693 76.366854 98.43991 76.366854 98.220155 
C 76.366854 98.000401 76.279545 97.789617 76.124155 97.634227 
C 75.968765 97.478837 75.757981 97.391528 75.538227 97.391528 
C 75.318472 97.391528 75.107689 97.478837 74.952299 97.634227 
C 74.796909 97.789617 74.7096 98.000401 74.7096 98.220155 
C 74.7096 98.43991 74.796909 98.650693 74.952299 98.806083 
C 75.107689 98.961473 75.318472 99.048783 75.538227 99.048783 
z
"/>
    <path clip-path="url(#p87c72f8ee1)" d="M 60.231302 78.343503 
C 60.454223 78.343503 60.668043 78.254935 60.825672 78.097306 
C 60.983301 77.939677 61.071869 77.725857 61.071869 77.502936 
C 61.071869 77.280015 60.983301 77.066194 60.825672 76.908565 
C 60.668043 76.750936 60.454223 76.662369 60.231302 76.662369 
C 60.008381 76.662369 59.79456 76.750936 59.636931 76.908565 
C 59.479302 77.066194 59.390735 77.280015 59.390735 77.502936 
C 59.390735 77.725857 59.479302 77.939677 59.636931 78.097306 
C 59.79456 78.254935 60.008381 78.343503 60.231302 78.343503 
z
"/>
    <path clip-path="url(#p87c72f8ee1)" d="M 33.888277 78.018285 
C 34.020392 78.018285 34.147113 77.965795 34.240532 77.872376 
C 34.333951 77.778957 34.38644 77.652236 34.38644 77.520122 
C 34.38644 77.388008 34.333951 77.261286 34.240532 77.167867 
C 34.147113 77.074448 34.020392 77.021959 33.888277 77.021959 
C 33.756163 77.021959 33.629442 77.074448 33.536023 77.167867 
C 33.442604 77.261286 33.390114 77.388008 33.390114 77.520122 
C 33.390114 77.652236 33.442604 77.778957 33.536023 77.872376 
C 33.629442 77.965795 33.756163 78.018285 33.888277 78.018285 
z
"/>
    <path clip-path="url(#p87c72f8ee1)" d="M 28.23574 97.204017 
C 28.39437 97.204017 28.546525 97.140992 28.658694 97.028823 
C 28.770863 96.916655 28.833887 96.7645 28.833887 96.605869 
C 28.833887 96.447239 28.770863 96.295084 28.658694 96.182915 
C 28.546525 96.070746 28.39437 96.007722 28.23574 96.007722 
C 28.077109 96.007722 27.924954 96.070746 27.812785 96.182915 
C 27.700617 96.295084 27.637592 96.447239 27.637592 96.605869 
C 27.637592 96.7645 27.700617 96.916655 27.812785 97.028823 
C 27.924954 97.140992 28.077109 97.204017 28.23574 97.204017 
z
"/>
    <path clip-path="url(#p87c72f8ee1)" d="M 45.686062 122.420161 
C 45.874944 122.420161 46.056116 122.345117 46.189676 122.211557 
C 46.323236 122.077997 46.39828 121.896825 46.39828 121.707943 
C 46.39828 121.51906 46.323236 121.337889 46.189676 121.204329 
C 46.056116 121.070769 45.874944 120.995725 45.686062 120.995725 
C 45.497179 120.995725 45.316007 121.070769 45.182447 121.204329 
C 45.048887 121.337889 44.973844 121.51906 44.973844 121.707943 
C 44.973844 121.896825 45.048887 122.077997 45.182447 122.211557 
C 45.316007 122.345117 45.497179 122.420161 45.686062 122.420161 
z
"/>
    <path clip-path="url(#p87c72f8ee1)" d="M 60.370564 115.743225 
C 60.600237 115.743225 60.820534 115.651976 60.982937 115.489573 
C 61.14534 115.327169 61.23659 115.106873 61.23659 114.8772 
C 61.23659 114.647527 61.14534 114.427231 60.982937 114.264828 
C 60.820534 114.102425 60.600237 114.011175 60.370564 114.011175 
C 60.140892 114.011175 59.920595 114.102425 59.758192 114.264828 
C 59.595789 114.427231 59.504539 114.647527 59.504539 114.8772 
C 59.504539 115.106873 59.595789 115.327169 59.758192 115.489573 
C 59.920595 115.651976 60.140892 115.743225 60.370564 115.743225 
z
"/>
    <path clip-path="url(#p87c72f8ee1)" d="M 52.983322 138.37395 
C 53.132268 138.37395 53.275134 138.314772 53.380455 138.209452 
C 53.485776 138.104131 53.544953 137.961265 53.544953 137.812318 
C 53.544953 137.663372 53.485776 137.520506 53.380455 137.415185 
C 53.275134 137.309864 53.132268 137.250687 52.983322 137.250687 
C 52.834375 137.250687 52.691509 137.309864 52.586188 137.415185 
C 52.480867 137.520506 52.42169 137.663372 52.42169 137.812318 
C 52.42169 137.961265 52.480867 138.104131 52.586188 138.209452 
C 52.691509 138.314772 52.834375 138.37395 52.983322 138.37395 
z
"/>
    <path clip-path="url(#p87c72f8ee1)" d="M 42.488181 107.235599 
C 42.706736 107.235599 42.916369 107.148766 43.070911 106.994224 
C 43.225453 106.839682 43.312286 106.630049 43.312286 106.411494 
C 43.312286 106.192939 43.225453 105.983305 43.070911 105.828764 
C 42.916369 105.674222 42.706736 105.587389 42.488181 105.587389 
C 42.269625 105.587389 42.059992 105.674222 41.90545 105.828764 
C 41.750908 105.983305 41.664075 106.192939 41.664075 106.411494 
C 41.664075 106.630049 41.750908 106.839682 41.90545 106.994224 
C 42.059992 107.148766 42.269625 107.235599 42.488181 107.235599 
z
"/>
    <path clip-path="url(#p87c72f8ee1)" d="M 28.819375 120.716735 
C 29.01284 120.716735 29.198407 120.63987 29.335208 120.50307 
C 29.472008 120.366269 29.548873 120.180702 29.548873 119.987237 
C 29.548873 119.793772 29.472008 119.608205 29.335208 119.471404 
C 29.198407 119.334604 29.01284 119.257739 28.819375 119.257739 
C 28.62591 119.257739 28.440343 119.334604 28.303542 119.471404 
C 28.166742 119.608205 28.089878 119.793772 28.089878 119.987237 
C 28.089878 120.180702 28.166742 120.366269 28.303542 120.50307 
C 28.440343 120.63987 28.62591 120.716735 28.819375 120.716735 
z
"/>
    <path clip-path="url(#p87c72f8ee1)" d="M 37.681024 138.529875 
C 37.893481 138.529875 38.097266 138.445465 38.247496 138.295235 
C 38.397726 138.145005 38.482136 137.94122 38.482136 137.728763 
C 38.482136 137.516305 38.397726 137.312521 38.247496 137.162291 
C 38.097266 137.012061 37.893481 136.927651 37.681024 136.927651 
C 37.468566 136.927651 37.264782 137.012061 37.114552 137.162291 
C 36.964322 137.312521 36.879912 137.516305 36.879912 137.728763 
C 36.879912 137.94122 36.964322 138.145005 37.114552 138.295235 
C 37.264782 138.445465 37.468566 138.529875 37.681024 138.529875 
z
"/>
    <path clip-path="url(#p87c72f8ee1)" d="M 44.977873 187.660353 
C 45.176256 187.660353 45.366542 187.581534 45.50682 187.441255 
C 45.647098 187.300977 45.725917 187.110692 45.725917 186.912308 
C 45.725917 186.713925 45.647098 186.523639 45.50682 186.383361 
C 45.366542 186.243083 45.176256 186.164264 44.977873 186.164264 
C 44.779489 186.164264 44.589204 186.243083 44.448926 186.383361 
C 44.308647 186.523639 44.229828 186.713925 44.229828 186.912308 
C 44.229828 187.110692 44.308647 187.300977 44.448926 187.441255 
C 44.589204 187.581534 44.779489 187.660353 44.977873 187.660353 
z
"/>
    <path clip-path="url(#p87c72f8ee1)" d="M 47.991063 154.180304 
C 48.199356 154.180304 48.399146 154.097549 48.546431 153.950263 
C 48.693717 153.802978 48.776472 153.603188 48.776472 153.394895 
C 48.776472 153.186601 48.693717 152.986811 48.546431 152.839526 
C 48.399146 152.69224 48.199356 152.609485 47.991063 152.609485 
C 47.782769 152.609485 47.582979 152.69224 47.435694 152.839526 
C 47.288409 152.986811 47.205653 153.186601 47.205653 153.394895 
C 47.205653 153.603188 47.288409 153.802978 47.435694 153.950263 
C 47.582979 154.097549 47.782769 154.180304 47.991063 154.180304 
z
"/>
    <path clip-path="url(#p87c72f8ee1)" d="M 34.748772 169.966414 
C 34.918089 169.966414 35.080493 169.899144 35.200217 169.779419 
C 35.319942 169.659695 35.387212 169.49729 35.387212 169.327974 
C 35.387212 169.158658 35.319942 168.996254 35.200217 168.876529 
C 35.080493 168.756804 34.918089 168.689534 34.748772 168.689534 
C 34.579456 168.689534 34.417052 168.756804 34.297327 168.876529 
C 34.177603 168.996254 34.110333 169.158658 34.110333 169.327974 
C 34.110333 169.49729 34.177603 169.659695 34.297327 169.779419 
C 34.417052 169.899144 34.579456 169.966414 34.748772 169.966414 
z
"/>
    <path clip-path="url(#p87c72f8ee1)" d="M 138.164101 206.731044 
C 138.358469 206.731044 138.544903 206.65382 138.682342 206.516381 
C 138.819782 206.378942 138.897005 206.192508 138.897005 205.998139 
C 138.897005 205.803771 138.819782 205.617337 138.682342 205.479897 
C 138.544903 205.342458 138.358469 205.265235 138.164101 205.265235 
C 137.969732 205.265235 137.783298 205.342458 137.645859 205.479897 
C 137.508419 205.617337 137.431196 205.803771 137.431196 205.998139 
C 137.431196 206.192508 137.508419 206.378942 137.645859 206.516381 
C 137.783298 206.65382 137.969732 206.731044 138.164101 206.731044 
z
"/>
    <path clip-path="url(#p87c72f8ee1)" d="M 138.012112 170.953999 
C 138.167393 170.953999 138.316336 170.892305 138.426137 170.782505 
C 138.535937 170.672704 138.597631 170.523761 138.597631 170.36848 
C 138.597631 170.213198 138.535937 170.064256 138.426137 169.954455 
C 138.316336 169.844654 138.167393 169.78296 138.012112 169.78296 
C 137.85683 169.78296 137.707887 169.844654 137.598087 169.954455 
C 137.488286 170.064256 137.426592 170.213198 137.426592 170.36848 
C 137.426592 170.523761 137.488286 170.672704 137.598087 170.782505 
C 137.707887 170.892305 137.85683 170.953999 138.012112 170.953999 
z
"/>
    <path clip-path="url(#p87c72f8ee1)" d="M 139.354399 152.291537 
C 139.537153 152.291537 139.712446 152.218928 139.841672 152.089702 
C 139.970898 151.960476 140.043506 151.785183 140.043506 151.60243 
C 140.043506 151.419676 139.970898 151.244384 139.841672 151.115157 
C 139.712446 150.985931 139.537153 150.913323 139.354399 150.913323 
C 139.171646 150.913323 138.996353 150.985931 138.867127 151.115157 
C 138.737901 151.244384 138.665292 151.419676 138.665292 151.60243 
C 138.665292 151.785183 138.737901 151.960476 138.867127 152.089702 
C 138.996353 152.218928 139.171646 152.291537 139.354399 152.291537 
z
"/>
    <path clip-path="url(#p87c72f8ee1)" d="M 138.732849 186.932007 
C 138.936032 186.932007 139.130921 186.851282 139.274593 186.707609 
C 139.418265 186.563937 139.498991 186.369048 139.498991 186.165865 
C 139.498991 185.962682 139.418265 185.767793 139.274593 185.624121 
C 139.130921 185.480448 138.936032 185.399723 138.732849 185.399723 
C 138.529666 185.399723 138.334777 185.480448 138.191105 185.624121 
C 138.047432 185.767793 137.966707 185.962682 137.966707 186.165865 
C 137.966707 186.369048 138.047432 186.563937 138.191105 186.707609 
C 138.334777 186.851282 138.529666 186.932007 138.732849 186.932007 
z
"/>
    <path clip-path="url(#p87c72f8ee1)" d="M 122.654055 159.710338 
C 122.856374 159.710338 123.050434 159.629955 123.193495 159.486894 
C 123.336557 159.343833 123.416939 159.149773 123.416939 158.947454 
C 123.416939 158.745135 123.336557 158.551075 123.193495 158.408014 
C 123.050434 158.264953 122.856374 158.18457 122.654055 158.18457 
C 122.451736 158.18457 122.257676 158.264953 122.114615 158.408014 
C 121.971554 158.551075 121.891172 158.745135 121.891172 158.947454 
C 121.891172 159.149773 121.971554 159.343833 122.114615 159.486894 
C 122.257676 159.629955 122.451736 159.710338 122.654055 159.710338 
z
"/>
    <path clip-path="url(#p87c72f8ee1)" d="M 82.149793 154.439241 
C 82.325208 154.439241 82.493463 154.369548 82.6175 154.24551 
C 82.741537 154.121473 82.811231 153.953218 82.811231 153.777803 
C 82.811231 153.602388 82.741537 153.434133 82.6175 153.310096 
C 82.493463 153.186058 82.325208 153.116365 82.149793 153.116365 
C 81.974378 153.116365 81.806123 153.186058 81.682086 153.310096 
C 81.558048 153.434133 81.488355 153.602388 81.488355 153.777803 
C 81.488355 153.953218 81.558048 154.121473 81.682086 154.24551 
C 81.806123 154.369548 81.974378 154.439241 82.149793 154.439241 
z
"/>
    <path clip-path="url(#p87c72f8ee1)" d="M 96.694827 158.895244 
C 96.919704 158.895244 97.135402 158.805899 97.294414 158.646887 
C 97.453426 158.487874 97.542771 158.272177 97.542771 158.0473 
C 97.542771 157.822422 97.453426 157.606725 97.294414 157.447713 
C 97.135402 157.2887 96.919704 157.199356 96.694827 157.199356 
C 96.46995 157.199356 96.254252 157.2887 96.09524 157.447713 
C 95.936228 157.606725 95.846883 157.822422 95.846883 158.0473 
C 95.846883 158.272177 95.936228 158.487874 96.09524 158.646887 
C 96.254252 158.805899 96.46995 158.895244 96.694827 158.895244 
z
"/>
    <path clip-path="url(#p87c72f8ee1)" d="M 71.862951 134.195696 
C 72.048086 134.195696 72.225663 134.122142 72.356573 133.991232 
C 72.487483 133.860322 72.561037 133.682745 72.561037 133.49761 
C 72.561037 133.312475 72.487483 133.134898 72.356573 133.003988 
C 72.225663 132.873078 72.048086 132.799524 71.862951 132.799524 
C 71.677816 132.799524 71.500239 132.873078 71.369329 133.003988 
C 71.238419 133.134898 71.164865 133.312475 71.164865 133.49761 
C 71.164865 133.682745 71.238419 133.860322 71.369329 133.991232 
C 71.500239 134.122142 71.677816 134.195696 71.862951 134.195696 
z
"/>
    <path clip-path="url(#p87c72f8ee1)" d="M 94.452597 132.720453 
C 94.642405 132.720453 94.824464 132.645041 94.958678 132.510827 
C 95.092893 132.376613 95.168304 132.194553 95.168304 132.004746 
C 95.168304 131.814938 95.092893 131.632878 94.958678 131.498664 
C 94.824464 131.36445 94.642405 131.289038 94.452597 131.289038 
C 94.262789 131.289038 94.08073 131.36445 93.946516 131.498664 
C 93.812301 131.632878 93.73689 131.814938 93.73689 132.004746 
C 93.73689 132.194553 93.812301 132.376613 93.946516 132.510827 
C 94.08073 132.645041 94.262789 132.720453 94.452597 132.720453 
z
"/>
    <path clip-path="url(#p87c72f8ee1)" d="M 68.537469 174.823052 
C 68.754818 174.823052 68.963295 174.736698 69.116984 174.583009 
C 69.270673 174.42932 69.357027 174.220843 69.357027 174.003494 
C 69.357027 173.786144 69.270673 173.577668 69.116984 173.423979 
C 68.963295 173.270289 68.754818 173.183936 68.537469 173.183936 
C 68.32012 173.183936 68.111643 173.270289 67.957954 173.423979 
C 67.804265 173.577668 67.717911 173.786144 67.717911 174.003494 
C 67.717911 174.220843 67.804265 174.42932 67.957954 174.583009 
C 68.111643 174.736698 68.32012 174.823052 68.537469 174.823052 
z
"/>
    <path clip-path="url(#p87c72f8ee1)" d="M 52.886413 170.22364 
C 53.085238 170.22364 53.275946 170.144646 53.416536 170.004056 
C 53.557127 169.863465 53.636121 169.672757 53.636121 169.473932 
C 53.636121 169.275107 53.557127 169.084399 53.416536 168.943809 
C 53.275946 168.803219 53.085238 168.724225 52.886413 168.724225 
C 52.687588 168.724225 52.49688 168.803219 52.35629 168.943809 
C 52.215699 169.084399 52.136705 169.275107 52.136705 169.473932 
C 52.136705 169.672757 52.215699 169.863465 52.35629 170.004056 
C 52.49688 170.144646 52.687588 170.22364 52.886413 170.22364 
z
"/>
    <path clip-path="url(#p87c72f8ee1)" d="M 62.691672 189.742438 
C 62.874425 189.742438 63.049718 189.66983 63.178944 189.540604 
C 63.30817 189.411377 63.380779 189.236085 63.380779 189.053331 
C 63.380779 188.870578 63.30817 188.695285 63.178944 188.566059 
C 63.049718 188.436833 62.874425 188.364224 62.691672 188.364224 
C 62.508918 188.364224 62.333625 188.436833 62.204399 188.566059 
C 62.075173 188.695285 62.002565 188.870578 62.002565 189.053331 
C 62.002565 189.236085 62.075173 189.411377 62.204399 189.540604 
C 62.333625 189.66983 62.508918 189.742438 62.691672 189.742438 
z
"/>
    <path clip-path="url(#p87c72f8ee1)" d="M 82.0758 169.702983 
C 82.29635 169.702983 82.507897 169.615357 82.66385 169.459405 
C 82.819803 169.303452 82.907428 169.091905 82.907428 168.871355 
C 82.907428 168.650804 82.819803 168.439258 82.66385 168.283305 
C 82.507897 168.127352 82.29635 168.039727 82.0758 168.039727 
C 81.85525 168.039727 81.643703 168.127352 81.48775 168.283305 
C 81.331797 168.439258 81.244172 168.650804 81.244172 168.871355 
C 81.244172 169.091905 81.331797 169.303452 81.48775 169.459405 
C 81.643703 169.615357 81.85525 169.702983 82.0758 169.702983 
z
"/>
    <path clip-path="url(#p87c72f8ee1)" d="M 65.353781 158.145584 
C 65.570323 158.145584 65.778025 158.059551 65.931143 157.906433 
C 66.084261 157.753315 66.170294 157.545613 66.170294 157.329071 
C 66.170294 157.112529 66.084261 156.904827 65.931143 156.751709 
C 65.778025 156.598591 65.570323 156.512558 65.353781 156.512558 
C 65.137239 156.512558 64.929537 156.598591 64.776419 156.751709 
C 64.623301 156.904827 64.537268 157.112529 64.537268 157.329071 
C 64.537268 157.545613 64.623301 157.753315 64.776419 157.906433 
C 64.929537 158.059551 65.137239 158.145584 65.353781 158.145584 
z
"/>
    <path clip-path="url(#p87c72f8ee1)" d="M 95.696625 176.939082 
C 95.923442 176.939082 96.140999 176.848967 96.301383 176.688583 
C 96.461767 176.528199 96.551882 176.310642 96.551882 176.083825 
C 96.551882 175.857008 96.461767 175.63945 96.301383 175.479067 
C 96.140999 175.318683 95.923442 175.228568 95.696625 175.228568 
C 95.469808 175.228568 95.25225 175.318683 95.091866 175.479067 
C 94.931483 175.63945 94.841367 175.857008 94.841367 176.083825 
C 94.841367 176.310642 94.931483 176.528199 95.091866 176.688583 
C 95.25225 176.848967 95.469808 176.939082 95.696625 176.939082 
z
"/>
    <path clip-path="url(#p87c72f8ee1)" d="M 108.773323 167.908445 
C 109.002828 167.908445 109.222964 167.817262 109.385248 167.654977 
C 109.547532 167.492693 109.638716 167.272557 109.638716 167.043052 
C 109.638716 166.813548 109.547532 166.593412 109.385248 166.431128 
C 109.222964 166.268843 109.002828 166.17766 108.773323 166.17766 
C 108.543819 166.17766 108.323683 166.268843 108.161399 166.431128 
C 107.999114 166.593412 107.907931 166.813548 107.907931 167.043052 
C 107.907931 167.272557 107.999114 167.492693 108.161399 167.654977 
C 108.323683 167.817262 108.543819 167.908445 108.773323 167.908445 
z
"/>
    <path clip-path="url(#p87c72f8ee1)" d="M 119.85121 178.913689 
C 120.01366 178.913689 120.169479 178.849147 120.284349 178.734277 
C 120.399219 178.619407 120.463761 178.463588 120.463761 178.301138 
C 120.463761 178.138687 120.399219 177.982869 120.284349 177.867999 
C 120.169479 177.753129 120.01366 177.688587 119.85121 177.688587 
C 119.688759 177.688587 119.53294 177.753129 119.41807 177.867999 
C 119.3032 177.982869 119.238658 178.138687 119.238658 178.301138 
C 119.238658 178.463588 119.3032 178.619407 119.41807 178.734277 
C 119.53294 178.849147 119.688759 178.913689 119.85121 178.913689 
z
"/>
    <path clip-path="url(#p87c72f8ee1)" d="M 124.35145 194.630846 
C 124.571205 194.630846 124.781988 194.543536 124.937378 194.388147 
C 125.092768 194.232757 125.180078 194.021973 125.180078 193.802219 
C 125.180078 193.582464 125.092768 193.371681 124.937378 193.216291 
C 124.781988 193.060901 124.571205 192.973591 124.35145 192.973591 
C 124.131696 192.973591 123.920912 193.060901 123.765522 193.216291 
C 123.610133 193.371681 123.522823 193.582464 123.522823 193.802219 
C 123.522823 194.021973 123.610133 194.232757 123.765522 194.388147 
C 123.920912 194.543536 124.131696 194.630846 124.35145 194.630846 
z
"/>
    <path clip-path="url(#p87c72f8ee1)" d="M 118.789813 208.271023 
C 119.000615 208.271023 119.202811 208.187271 119.35187 208.038211 
C 119.500929 207.889152 119.584682 207.686956 119.584682 207.476154 
C 119.584682 207.265353 119.500929 207.063157 119.35187 206.914097 
C 119.202811 206.765038 119.000615 206.681286 118.789813 206.681286 
C 118.579012 206.681286 118.376815 206.765038 118.227756 206.914097 
C 118.078697 207.063157 117.994945 207.265353 117.994945 207.476154 
C 117.994945 207.686956 118.078697 207.889152 118.227756 208.038211 
C 118.376815 208.187271 118.579012 208.271023 118.789813 208.271023 
z
"/>
    <path clip-path="url(#p87c72f8ee1)" d="M 85.943392 206.075169 
C 86.09351 206.075169 86.2375 206.015527 86.34365 205.909377 
C 86.449799 205.803228 86.509442 205.659238 86.509442 205.50912 
C 86.509442 205.359002 86.449799 205.215012 86.34365 205.108862 
C 86.2375 205.002713 86.09351 204.94307 85.943392 204.94307 
C 85.793274 204.94307 85.649284 205.002713 85.543135 205.108862 
C 85.436985 205.215012 85.377343 205.359002 85.377343 205.50912 
C 85.377343 205.659238 85.436985 205.803228 85.543135 205.909377 
C 85.649284 206.015527 85.793274 206.075169 85.943392 206.075169 
z
"/>
    <path clip-path="url(#p87c72f8ee1)" d="M 82.255387 188.176103 
C 82.457706 188.176103 82.651766 188.095721 82.794827 187.95266 
C 82.937888 187.809599 83.01827 187.615539 83.01827 187.41322 
C 83.01827 187.210901 82.937888 187.016841 82.794827 186.87378 
C 82.651766 186.730718 82.457706 186.650336 82.255387 186.650336 
C 82.053067 186.650336 81.859008 186.730718 81.715946 186.87378 
C 81.572885 187.016841 81.492503 187.210901 81.492503 187.41322 
C 81.492503 187.615539 81.572885 187.809599 81.715946 187.95266 
C 81.859008 188.095721 82.053067 188.176103 82.255387 188.176103 
z
"/>
    <path clip-path="url(#p87c72f8ee1)" d="M 70.0798 205.833578 
C 70.258187 205.833578 70.429292 205.762704 70.55543 205.636566 
C 70.681569 205.510427 70.752442 205.339323 70.752442 205.160936 
C 70.752442 204.982549 70.681569 204.811445 70.55543 204.685306 
C 70.429292 204.559168 70.258187 204.488294 70.0798 204.488294 
C 69.901414 204.488294 69.730309 204.559168 69.604171 204.685306 
C 69.478032 204.811445 69.407158 204.982549 69.407158 205.160936 
C 69.407158 205.339323 69.478032 205.510427 69.604171 205.636566 
C 69.730309 205.762704 69.901414 205.833578 70.0798 205.833578 
z
"/>
    <path clip-path="url(#p87c72f8ee1)" d="M 101.610823 207.720154 
C 101.762681 207.720154 101.908341 207.65982 102.015721 207.552439 
C 102.123102 207.445059 102.183436 207.299399 102.183436 207.147541 
C 102.183436 206.995682 102.123102 206.850022 102.015721 206.742642 
C 101.908341 206.635261 101.762681 206.574927 101.610823 206.574927 
C 101.458964 206.574927 101.313304 206.635261 101.205924 206.742642 
C 101.098543 206.850022 101.038209 206.995682 101.038209 207.147541 
C 101.038209 207.299399 101.098543 207.445059 101.205924 207.552439 
C 101.313304 207.65982 101.458964 207.720154 101.610823 207.720154 
z
"/>
    <path clip-path="url(#p87c72f8ee1)" d="M 103.542372 190.936163 
C 103.746845 190.936163 103.94297 190.854925 104.087554 190.710341 
C 104.232138 190.565757 104.313376 190.369631 104.313376 190.165159 
C 104.313376 189.960686 104.232138 189.76456 104.087554 189.619976 
C 103.94297 189.475392 103.746845 189.394154 103.542372 189.394154 
C 103.337899 189.394154 103.141774 189.475392 102.99719 189.619976 
C 102.852606 189.76456 102.771368 189.960686 102.771368 190.165159 
C 102.771368 190.369631 102.852606 190.565757 102.99719 190.710341 
C 103.141774 190.854925 103.337899 190.936163 103.542372 190.936163 
z
"/>
   </g>
  </g>
 </g>
 <defs>
  <clipPath id="p87c72f8ee1">
   <rect height="217.44" width="145.990323" x="0" y="-0"/>
  </clipPath>
 </defs>
</svg>
